<mxfile host="app.diagrams.net" modified="2021-12-14T06:38:00.775Z" agent="5.0 (Windows NT 10.0; Win64; x64) AppleWebKit/537.36 (KHTML, like Gecko) Chrome/96.0.4664.93 Safari/537.36" etag="xXXgsvRl-3Ya5hJ0GhNM" version="15.9.6" type="github">
  <diagram id="J1Vowh26vLz53ZqqpYSX" name="第 1 页">
    <mxGraphModel dx="1038" dy="1716" grid="1" gridSize="10" guides="1" tooltips="1" connect="1" arrows="1" fold="1" page="1" pageScale="1" pageWidth="827" pageHeight="1169" math="0" shadow="0">
      <root>
        <mxCell id="0" />
        <mxCell id="1" parent="0" />
        <mxCell id="ODQM6ZstjYPvC5WV3IUR-1" value="Mysql" style="rounded=0;whiteSpace=wrap;html=1;verticalAlign=top;" vertex="1" parent="1">
          <mxGeometry x="140" y="80" width="130" height="250" as="geometry" />
        </mxCell>
        <mxCell id="ODQM6ZstjYPvC5WV3IUR-16" style="edgeStyle=orthogonalEdgeStyle;rounded=0;orthogonalLoop=1;jettySize=auto;html=1;" edge="1" parent="1" source="ODQM6ZstjYPvC5WV3IUR-2">
          <mxGeometry relative="1" as="geometry">
            <mxPoint x="390" y="122.5" as="targetPoint" />
          </mxGeometry>
        </mxCell>
        <mxCell id="ODQM6ZstjYPvC5WV3IUR-2" value="tb_operate_record" style="rounded=1;whiteSpace=wrap;html=1;" vertex="1" parent="1">
          <mxGeometry x="145" y="105" width="120" height="35" as="geometry" />
        </mxCell>
        <mxCell id="ODQM6ZstjYPvC5WV3IUR-3" value="tb_charge_course" style="rounded=1;whiteSpace=wrap;html=1;" vertex="1" parent="1">
          <mxGeometry x="145" y="148" width="120" height="30" as="geometry" />
        </mxCell>
        <mxCell id="ODQM6ZstjYPvC5WV3IUR-4" value="tb_station" style="rounded=1;whiteSpace=wrap;html=1;" vertex="1" parent="1">
          <mxGeometry x="145" y="186" width="120" height="30" as="geometry" />
        </mxCell>
        <mxCell id="ODQM6ZstjYPvC5WV3IUR-5" value="" style="rounded=1;whiteSpace=wrap;html=1;" vertex="1" parent="1">
          <mxGeometry x="145" y="223" width="120" height="27" as="geometry" />
        </mxCell>
        <mxCell id="ODQM6ZstjYPvC5WV3IUR-6" value="" style="rounded=1;whiteSpace=wrap;html=1;" vertex="1" parent="1">
          <mxGeometry x="145" y="257" width="120" height="30" as="geometry" />
        </mxCell>
        <mxCell id="ODQM6ZstjYPvC5WV3IUR-7" value="" style="rounded=1;whiteSpace=wrap;html=1;" vertex="1" parent="1">
          <mxGeometry x="145" y="293" width="120" height="27" as="geometry" />
        </mxCell>
        <mxCell id="ODQM6ZstjYPvC5WV3IUR-9" value="Hive" style="rounded=0;whiteSpace=wrap;html=1;verticalAlign=top;" vertex="1" parent="1">
          <mxGeometry x="320" y="-170" width="210" height="200" as="geometry" />
        </mxCell>
        <mxCell id="ODQM6ZstjYPvC5WV3IUR-10" value="dwd_bos_user_vehicle_ref" style="rounded=1;whiteSpace=wrap;html=1;" vertex="1" parent="1">
          <mxGeometry x="330" y="-145" width="166" height="32.5" as="geometry" />
        </mxCell>
        <mxCell id="ODQM6ZstjYPvC5WV3IUR-11" value="dim_pub_area" style="rounded=1;whiteSpace=wrap;html=1;" vertex="1" parent="1">
          <mxGeometry x="330" y="-10" width="120" height="32" as="geometry" />
        </mxCell>
        <mxCell id="ODQM6ZstjYPvC5WV3IUR-12" value="dim_pub_user_info" style="rounded=1;whiteSpace=wrap;html=1;" vertex="1" parent="1">
          <mxGeometry x="330" y="-99" width="120" height="35" as="geometry" />
        </mxCell>
        <mxCell id="ODQM6ZstjYPvC5WV3IUR-14" value="ods_imcrm_s_order_half" style="rounded=1;whiteSpace=wrap;html=1;" vertex="1" parent="1">
          <mxGeometry x="330" y="-50" width="147" height="32.5" as="geometry" />
        </mxCell>
        <mxCell id="ODQM6ZstjYPvC5WV3IUR-15" value="Hive" style="rounded=0;whiteSpace=wrap;html=1;verticalAlign=top;" vertex="1" parent="1">
          <mxGeometry x="390" y="73" width="216" height="257" as="geometry" />
        </mxCell>
        <mxCell id="ODQM6ZstjYPvC5WV3IUR-20" value="ods_imcps_tb_operate_record_mm" style="rounded=1;whiteSpace=wrap;html=1;" vertex="1" parent="1">
          <mxGeometry x="401.5" y="105" width="198.5" height="35" as="geometry" />
        </mxCell>
        <mxCell id="ODQM6ZstjYPvC5WV3IUR-21" value="ods_imcps_tb_operate_record_mm" style="rounded=1;whiteSpace=wrap;html=1;" vertex="1" parent="1">
          <mxGeometry x="401.5" y="145.5" width="198.5" height="35" as="geometry" />
        </mxCell>
        <mxCell id="ODQM6ZstjYPvC5WV3IUR-22" value="ods_imcps_tb_station_mm" style="rounded=1;whiteSpace=wrap;html=1;" vertex="1" parent="1">
          <mxGeometry x="401.5" y="188" width="198.5" height="35" as="geometry" />
        </mxCell>
      </root>
    </mxGraphModel>
  </diagram>
</mxfile>
